<?xml version="1.0" encoding="utf-8"?>
<!-- Generator: Adobe Illustrator 22.0.1, SVG Export Plug-In . SVG Version: 6.00 Build 0)  -->
<svg version="1.1" id="Vrstva_1" xmlns="http://www.w3.org/2000/svg" xmlns:xlink="http://www.w3.org/1999/xlink" x="0px" y="0px"
	 viewBox="0 0 239.4 166.9" style="enable-background:new 0 0 239.4 166.9;" xml:space="preserve">
<style type="text/css">
	.st0{fill:#76B949;}
	.st1{fill:#FFFFFF;}
	.st2{fill:#C91617;}
	.st3{fill-rule:evenodd;clip-rule:evenodd;fill:#FFFFFF;}
	.st4{fill-rule:evenodd;clip-rule:evenodd;fill:#76B949;}
	.st5{fill:#020203;}
	.st6{fill-rule:evenodd;clip-rule:evenodd;fill:#020203;}
</style>
<g>
	<path class="st2" d="M171.2,50.5v44.9c0,4.1-2.3,8.4-9.8,8.4c-7.5,0-9.8-4.2-9.8-8.4V55.7l-15.1,21.6v18.1
		c0,10.5,5.8,21.3,24.9,21.3c19.1,0,24.9-10.8,24.9-21.3V50.5H171.2z"/>
	<path class="st2" d="M92.7,50.5v12.5h-9.8c-8.7,0-17.6,4.8-17.6,20.6c0,15.8,8.9,20.6,17.6,20.6h3.8c-0.4,1.6-0.4,3.1-0.1,4.6
		c0.5,2.8,2.2,5.2,4.9,7.1l1.2,0.9H78.2C64.3,116.7,50,109,50,83.6c0-10.2,2.3-17.5,6-22.7c-4.4-2.2-6-6.4-6-10.4H92.7z"/>
	<path class="st2" d="M102.9,103.5l1.5-2.1c4.1-5.8,8.6-5.3,11.8-3.1l-1.5,2.1C110.6,106.3,106.1,105.8,102.9,103.5 M107.9,110.1
		c-4.1,5.8-8.6,5.3-11.8,3.1l1.5-2.1c4.1-5.8,8.6-5.3,11.8-3.1L107.9,110.1z M94.9,112.4c-3.2-2.2-5.2-6.3-1.2-12.1l1.5-2.1
		c3.2,2.2,5.2,6.3,1.2,12.1L94.9,112.4z M100.5,90.6l1.5-2.1c3.2,2.2,5.2,6.3,1.2,12.1l-1.5,2.1C98.5,100.5,96.4,96.4,100.5,90.6
		 M107.3,80.9l1.5-2.1c3.2,2.2,5.2,6.3,1.2,12.1l-1.5,2.1C105.3,90.8,103.2,86.7,107.3,80.9 M114.1,71.2l1.5-2.1
		c3.2,2.2,5.2,6.3,1.2,12.1l-1.5,2.1C112,81.1,110,77,114.1,71.2 M129.7,79l-1.5,2.1c-4.1,5.8-8.6,5.3-11.8,3.1l1.5-2.1
		C122,76.2,126.5,76.8,129.7,79 M122.9,66.9c2.4-3.5,5-4.3,7.3-3.9c1.2,2,1.3,4.7-1.1,8.2c-2.4,3.5-5,4.3-7.3,3.9
		C120.6,73.1,120.5,70.3,122.9,66.9 M121.4,90.8c-4.1,5.8-8.6,5.3-11.8,3.1l1.5-2.1c4.1-5.8,8.6-5.3,11.8-3.1L121.4,90.8z
		 M139.2,111.7c-2-2.1-3.6-4.7-4.6-7.5h-20.7l37.6-53.7h-1.8l-16.3,23.3c-1.7,2.4-3.5,2.2-4.8,1.2l17.2-24.5h-1.8l-10.4,14.8
		c-1.3-0.9-2.1-2.6-0.5-5l6.9-9.8h-1.8l-6.3,9c-1.7,2.4-3.5,2.2-4.8,1.2l7.2-10.2h-1.8l-12.8,18.3c-1.3-0.9-2.1-2.6-0.5-5l9.4-13.4
		h-1.8l-25.8,0v0h-5v12.5h22L95.2,95.5l-3,4.2c-4.8,6.8-2.4,11.6,1.4,14.2l1.4,1c1.6,1.1,3.4,1.8,5.3,1.8l46.3,0
		C143.7,115.5,141.2,113.8,139.2,111.7"/>
</g>
</svg>
