<?xml version="1.0" encoding="utf-8"?>
<!-- Generator: Adobe Illustrator 22.0.1, SVG Export Plug-In . SVG Version: 6.00 Build 0)  -->
<svg version="1.1" id="Layer_1" xmlns="http://www.w3.org/2000/svg" xmlns:xlink="http://www.w3.org/1999/xlink" x="0px" y="0px"
	 viewBox="0 0 300 100" style="enable-background:new 0 0 300 100;" xml:space="preserve">
<style type="text/css">
	.st0{fill:#FFFFFF;}
	.st1{fill:none;stroke:#C72027;stroke-width:3;stroke-linecap:round;stroke-miterlimit:10;}
	.st2{fill:#C72027;}
</style>
<g>
	<line class="st0" x1="5.3" y1="50" x2="284.3" y2="50"/>
	<g>
		<line class="st1" x1="5.3" y1="50" x2="279.7" y2="50"/>
		<g>
			<path class="st2" d="M254.1,68c-0.6-0.9-0.3-2,0.6-2.6L278.9,50l-24.2-15.4c-0.9-0.6-1.1-1.7-0.6-2.6c0.6-0.9,1.7-1.1,2.6-0.6
				l26.7,17c0.5,0.3,0.9,0.9,0.9,1.6s-0.3,1.2-0.9,1.6l-26.7,17c-0.3,0.2-0.7,0.3-1,0.3C255.1,68.9,254.5,68.6,254.1,68z"/>
		</g>
	</g>
</g>
</svg>
